<?xml version="1.0" encoding="UTF-8"?>
<svg id="Camada_1" xmlns="http://www.w3.org/2000/svg" version="1.1" viewBox="0 0 512 512">
  <!-- Generator: Adobe Illustrator 30.0.0, SVG Export Plug-In . SVG Version: 2.1.1 Build 123)  -->
  <defs>
    <style>
      .st0 {
        fill: #fff;
      }
    </style>
  </defs>
  <path class="st0" d="M304.67,410.33h-14.85c-2.75-11.95-5.76-30.84-3.65-53.51l-36.24-104.84-45.51-131.64h-34.25L60.94,423.76h17.32l32.95-92.32,5.65-15.6,58.06-163.41,55.92,163.41,5.19,15.6,13.88,40.47,17.78,51.85h41.62l-4.65-13.43h0ZM224.78,61.39l-48.56,37.29h9.53l78.92-37.29h-39.9Z"/>
  <path class="st0" d="M379.53,259.04c29.03-5.65,54.17-25.56,54.17-65,0-42.49-31.21-73.69-104.45-73.69h-96.11c2.85,10.67,5.56,21.52,8.12,32.55,22.32,96.11,28.96,187.44,26.43,270.86h66.76c82.81,0,116.61-34.25,116.61-85.83,0-54.63-38.15-75.41-71.52-78.89h0ZM289.81,133.77h35.55c48.98,0,68.9,23.42,68.9,61.11,0,7.57-.06,27.64-13.25,41.23-13.4,13.79-28.19,7.27-51.75,17.75-12.34,5.49-26.55,15.33-39.87,33.89.15-51.33.27-102.63.42-153.97h0ZM331.85,410.33h-42.04c-2.75-11.95-5.76-30.84-3.65-53.51.66-7.13,1.81-14.58,3.65-22.33,5.98-25.26,13.67-57.7,39.87-66.79,22.69-7.88,49.43,5.16,63.74,22.27,15,17.96,15.15,38.87,15.15,47.53,0,44.64-24.68,72.82-76.71,72.82h0Z"/>
  <path class="st0" d="M236.56,269.7c-17.76,2.75-43.28,8.74-71.27,22.77-27.59,13.84-47.45,30.42-60.24,42.87-1.74-3.47-3.46-6.95-5.2-10.42,12.33-12.26,31.33-28.41,57.68-42,29.1-15.01,55.75-21.02,73.83-23.63,1.74,3.47,3.46,6.95,5.2,10.42h0Z"/>
</svg>